<?xml version="1.0" encoding="UTF-8"?>
<svg width="108px" height="110px" viewBox="0 0 108 110" version="1.1" xmlns="http://www.w3.org/2000/svg" xmlns:xlink="http://www.w3.org/1999/xlink">
    <!-- Generator: Sketch 52.3 (67297) - http://www.bohemiancoding.com/sketch -->
    <title>Group 3</title>
    <desc>Created with Sketch.</desc>
    <defs>
        <polygon id="path-1" points="0 0 108 0 108 110 0 110"></polygon>
    </defs>
    <g id="Example" stroke="none" stroke-width="1" fill="none" fill-rule="evenodd">
        <g id="Site/Header" transform="translate(-192.000000, -20.000000)">
            <g id="Group-3" transform="translate(192.000000, 20.000000)">
                <mask id="mask-2" fill="white">
                    <use xlink:href="#path-1"></use>
                </mask>
                <g id="Clip-2"></g>
                <path d="M108,102.105023 L105.861447,102.105023 L103.527421,108.152631 L101.273055,102.105023 L98.9966298,102.105023 L98.9966298,102.241049 C99.2509277,102.241049 99.4433362,102.29987 99.5989787,102.377074 C99.7546213,102.47511 99.8722723,102.592141 99.9690894,102.785762 C100.027915,102.902793 100.067132,103.116022 100.086128,103.38991 C100.086128,103.544317 100.106349,103.698724 100.106349,103.874577 L100.106349,108.034374 C100.106349,108.424681 100.086128,108.715113 100.027915,108.88974 C99.9886979,109.0852 99.9304851,109.240832 99.8140596,109.356638 C99.7166298,109.474281 99.5989787,109.55271 99.483166,109.591924 C99.3661277,109.649521 99.1914894,109.670353 98.9966298,109.688122 L98.9966298,109.803315 L101.407251,109.803315 L101.407251,109.688122 C101.21423,109.670353 101.039591,109.649521 100.921328,109.591924 C100.805515,109.55271 100.688477,109.474281 100.592272,109.356638 C100.475234,109.240832 100.415796,109.0852 100.377804,108.90996 C100.3392,108.715113 100.318979,108.424681 100.318979,108.034374 L100.318979,103.096414 L102.982672,109.803315 L103.080715,109.803315 L105.784238,102.999604 L105.784238,108.034374 C105.784238,108.424681 105.744409,108.715113 105.705804,108.88974 C105.6672,109.0852 105.6096,109.240832 105.492562,109.356638 C105.393906,109.474281 105.278094,109.55271 105.161055,109.591924 C105.04463,109.649521 104.869379,109.670353 104.676357,109.688122 L104.676357,109.803315 L108,109.803315 L108,109.688122 C107.650723,109.670353 107.37743,109.55271 107.183796,109.356638 C107.086366,109.240832 107.007932,109.104807 106.969328,108.90996 C106.930723,108.715113 106.911728,108.424681 106.911728,108.034374 L106.911728,103.874577 C106.911728,103.601913 106.911728,103.38991 106.950332,103.174231 C106.950332,103.037593 106.990162,102.921787 107.028766,102.824977 C107.06737,102.728166 107.106587,102.63013 107.183796,102.551701 C107.299609,102.455503 107.397651,102.377074 107.515302,102.319478 C107.650723,102.27965 107.806366,102.241049 108,102.241049 L108,102.105023 Z M98.8942979,109.68751 C98.6810553,109.669128 98.5254128,109.629913 98.4083745,109.591924 C98.2925617,109.55271 98.2141277,109.513495 98.1166979,109.435066 C98.0002723,109.33703 97.9034553,109.202231 97.786417,109.006771 C97.6902128,108.813762 97.5523404,108.482277 97.3777021,108.034987 L95.1221106,102.105023 L94.8120511,102.105023 L92.9057362,107.432065 C92.7304851,107.917957 92.5944511,108.288656 92.4982468,108.521492 C92.3812085,108.774548 92.2837787,108.969395 92.1661277,109.123802 C92.0300936,109.317423 91.8946723,109.454061 91.7574128,109.53249 C91.6226043,109.629913 91.4675745,109.669128 91.2721021,109.68751 L91.2721021,109.803315 L93.6061277,109.803315 L93.6061277,109.68751 C93.3916596,109.669128 93.217634,109.610919 93.0803745,109.513495 C92.9835574,109.435066 92.9057362,109.33703 92.8475234,109.222451 C92.7899234,109.0852 92.7697021,108.969395 92.7697021,108.832757 C92.7697021,108.579701 92.8475234,108.269049 93.0019404,107.840753 L93.1379745,107.491499 L93.4106553,106.713337 L95.7060766,106.713337 L96.2109957,108.05582 L96.2894298,108.288656 C96.3874723,108.541712 96.4450723,108.75494 96.4450723,108.90996 C96.4450723,109.163629 96.3274213,109.376857 96.1147915,109.513495 C95.9977532,109.610919 95.7832851,109.649521 95.4726128,109.68751 L95.4726128,109.803315 L98.8942979,109.803315 L98.8942979,109.68751 Z M93.4884766,106.480501 L94.5197617,103.563312 L95.6288681,106.480501 L93.4884766,106.480501 Z M86.756017,106.052205 C86.9110468,106.052205 87.0476936,106.072425 87.1451234,106.090194 C87.2609362,106.129409 87.3577532,106.188843 87.4564085,106.247052 C87.6310468,106.402685 87.8442894,106.69373 88.0587574,107.101193 C88.2916085,107.509268 88.5066894,107.977391 88.7205447,108.521492 L89.0894298,109.416072 L89.2640681,109.803315 L90.9761362,109.803315 L90.9761362,109.688122 C90.8388766,109.670353 90.7218383,109.649521 90.6446298,109.591924 C90.5674213,109.552097 90.4699915,109.474281 90.392783,109.356638 C90.2757447,109.202231 90.1397106,108.987776 89.9840681,108.657517 C89.8272,108.346865 89.5949617,107.84014 89.2836766,107.160627 C89.1672511,106.849362 89.0698213,106.636133 88.992,106.519103 C88.9331745,106.402685 88.8553532,106.305874 88.7775319,106.227445 C88.6813277,106.129409 88.5256851,106.031985 88.3308255,105.934562 C88.5832851,105.877578 88.7775319,105.799149 88.9331745,105.742166 C89.0894298,105.663737 89.2242383,105.585308 89.3418894,105.487885 C89.7506043,105.118411 89.9644596,104.652126 89.9644596,104.068198 C89.9644596,103.679117 89.8670298,103.329863 89.672783,103.018598 C89.4785362,102.728166 89.2242383,102.494105 88.8749617,102.358079 C88.5649021,102.221441 88.1561872,102.144238 87.6120511,102.105023 L86.7762383,102.105023 L84.2669617,102.105023 L84.2669617,102.241049 C84.4605957,102.241049 84.6364596,102.27965 84.7528851,102.319478 C84.8693106,102.378299 84.9869617,102.455503 85.0837787,102.551701 C85.1995915,102.688339 85.258417,102.842746 85.2957957,103.018598 C85.3356255,103.194451 85.355234,103.484883 85.355234,103.875802 L85.355234,108.034374 C85.355234,108.424681 85.3356255,108.715113 85.2957957,108.909347 C85.258417,109.084587 85.1995915,109.240832 85.0837787,109.356638 C84.9869617,109.474281 84.8693106,109.552097 84.7528851,109.591924 C84.6364596,109.649521 84.4605957,109.670353 84.2669617,109.688122 L84.2669617,109.803315 L87.5906043,109.803315 L87.5906043,109.688122 C87.3969702,109.670353 87.2235574,109.649521 87.1052936,109.591924 C86.9882553,109.552097 86.8724426,109.474281 86.7762383,109.356638 C86.6592,109.240832 86.6003745,109.084587 86.5617702,108.890966 C86.5219404,108.715113 86.4845617,108.424681 86.4845617,108.034374 L86.4845617,106.052205 L86.756017,106.052205 Z M86.4845617,102.27965 L86.7161872,102.27965 C87.0862979,102.27965 87.3779745,102.29987 87.572834,102.358079 C87.7664681,102.415676 87.9423319,102.494105 88.0979745,102.63013 C88.2916085,102.785762 88.4282553,103.018598 88.5446809,103.271654 C88.6421106,103.52471 88.7003234,103.816368 88.7003234,104.107413 C88.7003234,104.671121 88.5256851,105.137405 88.1561872,105.508105 C87.9815489,105.682731 87.8056851,105.78138 87.6310468,105.838364 C87.4355745,105.897186 87.1261277,105.916793 86.6965787,105.916793 L86.4845617,105.916793 L86.4845617,102.27965 Z M82.6333277,102.105023 C82.5561191,102.358079 82.4574638,102.47511 82.3220426,102.47511 C82.2650553,102.47511 82.1853957,102.455503 82.1081872,102.415676 L81.7975149,102.27965 C81.5444426,102.144238 81.291983,102.045589 81.0389106,101.987993 C80.8054468,101.931622 80.5529872,101.911402 80.2809191,101.911402 C79.7949957,101.911402 79.3476766,101.987993 78.9187404,102.163845 C78.472034,102.319478 78.1037617,102.551701 77.7722553,102.862966 C77.364766,103.233052 77.0528681,103.718944 76.8384,104.301034 C76.6067745,104.86658 76.5075064,105.507492 76.5075064,106.168623 C76.5075064,106.653902 76.5663319,107.122025 76.683983,107.568703 C76.8187915,107.996385 76.9934298,108.364634 77.2078979,108.696119 C77.5179574,109.104807 77.9278979,109.436292 78.4125957,109.670353 C78.8991319,109.881744 79.4634894,109.999387 80.0664511,109.999387 C80.5149957,109.999387 80.9427064,109.939953 81.3312,109.824148 C81.7386894,109.707117 82.087966,109.53249 82.3802553,109.299654 C82.4966809,109.222451 82.5953362,109.183236 82.6725447,109.183236 C82.7307574,109.183236 82.8269617,109.202231 82.964834,109.261665 L82.964834,109.123802 C82.9433872,108.832144 82.9433872,108.63791 82.9433872,108.501885 C82.9433872,107.996385 82.964834,107.666126 83.0420426,107.509268 C83.0990298,107.355474 83.1786894,107.25805 83.3134979,107.199841 C83.4305362,107.122025 83.645617,107.082811 83.9562894,107.043596 L83.9562894,106.927791 L80.6301957,106.927791 L80.6301957,107.043596 C81.0585191,107.043596 81.3698043,107.139794 81.5444426,107.296652 C81.7386894,107.471279 81.8361191,107.74333 81.8361191,108.114029 C81.8361191,108.501885 81.7184681,108.851751 81.524834,109.144022 C81.3698043,109.356638 81.1755574,109.53249 80.9427064,109.649521 C80.7086298,109.765326 80.4561702,109.824148 80.2037106,109.824148 C79.5223149,109.824148 78.9579574,109.493888 78.4910298,108.813762 C78.2594043,108.463283 78.0835404,108.05582 77.9468936,107.607304 C77.8304681,107.139794 77.7532596,106.653902 77.7532596,106.129409 C77.7532596,105.061427 78.0253277,104.087805 78.5498553,103.252047 C78.8029277,102.843358 79.0756085,102.551701 79.3666723,102.377074 C79.6779574,102.182227 80.0278468,102.085416 80.4365617,102.085416 C80.9813106,102.085416 81.4274043,102.29987 81.7975149,102.708559 C82.1664,103.116022 82.4776851,103.737939 82.7307574,104.574923 L82.847183,104.574923 L82.7687489,102.105023 L82.6333277,102.105023 Z M67.8589277,106.013604 C67.8589277,106.499495 67.9373617,106.94556 68.0930043,107.39285 C68.2486468,107.840753 68.4631149,108.250054 68.753566,108.599308 C69.1236766,109.046598 69.5513872,109.397077 70.0575319,109.629913 C70.5630638,109.881744 71.0875915,110 71.6519489,110 C72.1960851,110 72.7402213,109.881744 73.246366,109.629913 C73.7721191,109.376857 74.2188255,109.006771 74.5870979,108.560706 C74.8989957,108.191232 75.1324596,107.782544 75.2887149,107.335867 C75.4437447,106.887964 75.5209532,106.421067 75.5209532,105.935175 C75.5209532,104.982998 75.2108936,104.127633 74.6073191,103.368465 C74.238434,102.902793 73.7917277,102.551701 73.2849702,102.29987 C72.7990468,102.027207 72.2732936,101.912015 71.7493787,101.912015 C71.3216681,101.912015 70.8933447,101.987993 70.4852426,102.144238 C70.0765277,102.319478 69.688034,102.532094 69.3381447,102.843358 C68.8509957,103.233052 68.4827234,103.718944 68.2290383,104.24405 C67.9968,104.788151 67.8589277,105.372692 67.8589277,106.013604 Z M69.1236766,106.090807 C69.1236766,105.46889 69.2008851,104.885575 69.3381447,104.340248 C69.4931745,103.797373 69.7082553,103.350083 69.9797106,102.981222 C70.2131745,102.648512 70.4662468,102.435896 70.7377021,102.29987 C71.0091574,102.144238 71.3216681,102.085416 71.691166,102.085416 C72.0606638,102.085416 72.3903319,102.163845 72.6630128,102.29987 C72.9363064,102.435896 73.1679319,102.669957 73.4020085,102.981222 C73.6740766,103.350083 73.8873191,103.797373 74.0441872,104.340248 C74.1986043,104.885575 74.2580426,105.46889 74.2580426,106.073038 C74.2580426,107.179621 73.9853617,108.094422 73.4406128,108.851751 C73.1869277,109.202231 72.9363064,109.435066 72.6434043,109.591924 C72.3719489,109.746944 72.0606638,109.803315 71.691166,109.803315 C71.3216681,109.803315 71.0091574,109.746944 70.7377021,109.591924 C70.4460255,109.435066 70.1941787,109.183236 69.9411064,108.851751 C69.3957447,108.114029 69.1236766,107.179621 69.1236766,106.090807 Z M63.2313191,106.052205 C63.407183,106.052205 63.5236085,106.072425 63.640034,106.090194 C63.7374638,106.129409 63.8538894,106.188843 63.9513191,106.247052 C64.1259574,106.402685 64.3220426,106.69373 64.5548936,107.101193 C64.7675234,107.509268 65.0016,107.977391 65.2160681,108.521492 L65.5837277,109.416072 L65.7405957,109.803315 L67.4710468,109.803315 L67.4710468,109.688122 C67.3344,109.670353 67.2185872,109.649521 67.1401532,109.591924 C67.0439489,109.552097 66.9649021,109.474281 66.8876936,109.356638 C66.7712681,109.202231 66.635234,108.987776 66.4789787,108.657517 C66.3227234,108.346865 66.0910979,107.84014 65.7792,107.160627 C65.643166,106.849362 65.5463489,106.636133 65.4875234,106.519103 C65.4280851,106.402685 65.3508766,106.305874 65.2736681,106.227445 C65.1762383,106.129409 65.0205957,106.031985 64.8073532,105.934562 C65.0788085,105.877578 65.2736681,105.799149 65.4280851,105.742166 C65.5653447,105.663737 65.7216,105.585308 65.8368,105.487885 C66.2455149,105.118411 66.459983,104.652126 66.459983,104.068198 C66.459983,103.679117 66.3625532,103.329863 66.1683064,103.018598 C65.9740596,102.728166 65.7216,102.494105 65.3717106,102.358079 C65.0592,102.221441 64.6327149,102.144238 64.1069617,102.105023 L63.2705362,102.105023 L60.7618723,102.105023 L60.7618723,102.241049 C60.9573447,102.241049 61.1123745,102.27965 61.2477957,102.319478 C61.3660596,102.378299 61.4818723,102.455503 61.5793021,102.551701 C61.6767319,102.688339 61.7539404,102.842746 61.7937702,103.018598 C61.8323745,103.194451 61.8513702,103.484883 61.8513702,103.875802 L61.8513702,108.034374 C61.8513702,108.424681 61.8323745,108.715113 61.7937702,108.909347 C61.7539404,109.084587 61.6767319,109.240832 61.5793021,109.356638 C61.4818723,109.474281 61.3660596,109.552097 61.2477957,109.591924 C61.131983,109.649521 60.9573447,109.670353 60.7618723,109.688122 L60.7618723,109.803315 L64.0867404,109.803315 L64.0867404,109.688122 C63.8937191,109.670353 63.7184681,109.649521 63.600817,109.591924 C63.4653957,109.552097 63.367966,109.474281 63.2705362,109.356638 C63.1534979,109.240832 63.0762894,109.084587 63.0376851,108.890966 C62.9978553,108.715113 62.9788596,108.424681 62.9788596,108.034374 L62.9788596,106.052205 L63.2313191,106.052205 Z M62.9788596,102.27965 L63.1921021,102.27965 C63.5818213,102.27965 63.8538894,102.29987 64.0683574,102.358079 C64.2626043,102.415676 64.4372426,102.494105 64.5928851,102.63013 C64.7877447,102.785762 64.923166,103.018598 65.0402043,103.271654 C65.137634,103.52471 65.1964596,103.816368 65.1964596,104.107413 C65.1964596,104.671121 65.0016,105.137405 64.6504851,105.508105 C64.4770723,105.682731 64.302434,105.78138 64.1069617,105.838364 C63.9323234,105.897186 63.6210383,105.916793 63.1921021,105.916793 L62.9788596,105.916793 L62.9788596,102.27965 Z M57.2721702,106.013604 C57.7188766,106.013604 58.0093277,106.013604 58.126366,105.994609 C58.4964766,105.954782 58.8077617,105.858584 59.060834,105.701726 C59.5669787,105.372692 59.8188255,104.86658 59.8188255,104.185841 C59.8188255,103.503877 59.5669787,102.960389 59.0804426,102.551701 C58.8653617,102.377074 58.6331234,102.261269 58.3604426,102.202447 C58.1073702,102.144238 57.6986553,102.105023 57.1545191,102.105023 L54.0238979,102.105023 L54.0238979,102.241049 L54.0631149,102.241049 C54.2769702,102.241049 54.4522213,102.29987 54.6072511,102.357467 C54.7438979,102.435896 54.8609362,102.551701 54.9375319,102.708559 C54.9957447,102.804144 55.0539574,102.960389 55.0741787,103.136854 C55.0931745,103.311481 55.112783,103.564537 55.112783,103.874577 L55.112783,108.034987 C55.112783,108.424681 55.0931745,108.715113 55.0539574,108.90996 C55.015966,109.0852 54.9375319,109.241445 54.8413277,109.35725 C54.7438979,109.474281 54.6262468,109.55271 54.5098213,109.591924 C54.3750128,109.649521 54.2181447,109.669128 54.0238979,109.68751 L54.0238979,109.803315 L57.3493787,109.803315 L57.3493787,109.68751 C57.1355234,109.669128 56.9798809,109.649521 56.8444596,109.591924 C56.7268085,109.55271 56.6293787,109.474281 56.5325617,109.35725 C56.4167489,109.241445 56.3383149,109.0852 56.2990979,108.88974 C56.2598809,108.715113 56.2408851,108.424681 56.2408851,108.034987 L56.2408851,106.013604 L57.2721702,106.013604 Z M56.2408851,102.27965 L56.6882043,102.27965 C56.9608851,102.27965 57.1545191,102.27965 57.2317277,102.29987 C57.524017,102.319478 57.7770894,102.435896 57.9915574,102.63013 C58.1661957,102.785149 58.3218383,103.000216 58.4192681,103.252047 C58.5154723,103.52471 58.5546894,103.797373 58.5546894,104.108025 C58.5546894,104.670508 58.4002723,105.118411 58.0479319,105.449896 C57.8947404,105.604915 57.7384851,105.701726 57.5442383,105.760548 C57.3683745,105.819982 57.0969191,105.838977 56.7458043,105.838977 L56.2408851,105.838977 L56.2408851,102.27965 Z M46.2068426,106.052205 C46.3630979,106.052205 46.4991319,106.072425 46.5959489,106.090194 C46.7136,106.129409 46.810417,106.188843 46.9066213,106.247052 C47.1014809,106.402685 47.2963404,106.69373 47.5291915,107.101193 C47.7430468,107.509268 47.9569021,107.977391 48.1909787,108.521492 L48.5414809,109.416072 L48.7161191,109.803315 L50.4269617,109.803315 L50.4269617,109.688122 C50.2903149,109.670353 50.1745021,109.649521 50.0960681,109.591924 C50.0182468,109.552097 49.9404255,109.474281 49.8436085,109.356638 C49.7467915,109.202231 49.6107574,108.987776 49.4545021,108.657517 C49.2982468,108.346865 49.0666213,107.84014 48.7553362,107.160627 C48.6186894,106.849362 48.5212596,106.636133 48.4630468,106.519103 C48.3858383,106.402685 48.3264,106.305874 48.2301957,106.227445 C48.132766,106.129409 47.9961191,106.031985 47.7822638,105.934562 C48.0353362,105.877578 48.2301957,105.799149 48.3858383,105.742166 C48.5414809,105.663737 48.6769021,105.585308 48.8123234,105.487885 C49.2210383,105.118411 49.4158979,104.652126 49.4158979,104.068198 C49.4158979,103.679117 49.3184681,103.329863 49.1438298,103.018598 C48.9489702,102.728166 48.6769021,102.494105 48.3264,102.358079 C48.0353362,102.221441 47.6076255,102.144238 47.0622638,102.105023 L46.2460596,102.105023 L43.7184,102.105023 L43.7184,102.241049 C43.9322553,102.241049 44.0878979,102.27965 44.2055489,102.319478 C44.3397447,102.378299 44.4371745,102.455503 44.5358298,102.551701 C44.6522553,102.688339 44.7294638,102.842746 44.7686809,103.018598 C44.8078979,103.194451 44.8256681,103.484883 44.8256681,103.875802 L44.8256681,108.034374 C44.8256681,108.424681 44.8078979,108.715113 44.7686809,108.909347 C44.7294638,109.084587 44.6522553,109.240832 44.5358298,109.356638 C44.4371745,109.474281 44.3397447,109.552097 44.2055489,109.591924 C44.0878979,109.649521 43.9322553,109.670353 43.7184,109.688122 L43.7184,109.803315 L47.0622638,109.803315 L47.0622638,109.688122 C46.849634,109.670353 46.6939915,109.649521 46.5573447,109.591924 C46.4409191,109.552097 46.3244936,109.474281 46.2264511,109.356638 C46.1290213,109.240832 46.0512,109.084587 46.0125957,108.890966 C45.9733787,108.715113 45.954383,108.424681 45.954383,108.034374 L45.954383,106.052205 L46.2068426,106.052205 Z M45.954383,102.27965 L46.1682383,102.27965 C46.5377362,102.27965 46.8294128,102.29987 47.0242723,102.358079 C47.2381277,102.415676 47.412766,102.494105 47.5481872,102.63013 C47.7430468,102.785762 47.8986894,103.018598 47.9961191,103.271654 C48.1125447,103.52471 48.1517617,103.816368 48.1517617,104.107413 C48.1517617,104.671121 47.9771234,105.137405 47.6076255,105.508105 C47.451983,105.682731 47.2761191,105.78138 47.0818723,105.838364 C46.8876255,105.897186 46.5763404,105.916793 46.1492426,105.916793 L45.954383,105.916793 L45.954383,102.27965 Z M43.0854128,109.68751 C42.8715574,109.669128 42.7159149,109.629913 42.6197106,109.591924 C42.5026723,109.55271 42.4046298,109.513495 42.328034,109.435066 C42.2116085,109.33703 42.0939574,109.202231 41.9971404,109.006771 C41.8990979,108.813762 41.7636766,108.482277 41.5884255,108.034987 L39.3138383,102.105023 L39.0215489,102.105023 L37.1164596,107.432065 C36.9418213,107.917957 36.8051745,108.288656 36.6881362,108.521492 C36.5913191,108.774548 36.4748936,108.969395 36.3572426,109.123802 C36.240817,109.317423 36.1041702,109.454061 35.9687489,109.53249 C35.8131064,109.629913 35.6574638,109.669128 35.4828255,109.68751 L35.4828255,109.803315 L37.8162383,109.803315 L37.8162383,109.68751 C37.602383,109.669128 37.4277447,109.610919 37.2910979,109.513495 C37.1936681,109.435066 37.1164596,109.33703 37.057634,109.222451 C36.9988085,109.0852 36.960817,108.969395 36.960817,108.832757 C36.960817,108.579701 37.0380255,108.269049 37.1936681,107.840753 L37.3290894,107.491499 L37.602383,106.713337 L39.8971915,106.713337 L40.4021106,108.05582 L40.4995404,108.288656 C40.5969702,108.541712 40.6361872,108.75494 40.6361872,108.90996 C40.6361872,109.163629 40.5375319,109.376857 40.3249021,109.513495 C40.1882553,109.610919 39.9744,109.649521 39.6637277,109.68751 L39.6637277,109.803315 L43.0854128,109.803315 L43.0854128,109.68751 Z M37.6985872,106.480501 L38.7304851,103.563312 L39.8187574,106.480501 L37.6985872,106.480501 Z M35.1905362,109.803315 L35.2689702,107.491499 L35.1317106,107.491499 C35.0741106,107.840753 34.9962894,108.114029 34.9190809,108.32787 C34.8406468,108.541712 34.7438298,108.736559 34.6077957,108.90996 C34.4331574,109.163629 34.1990809,109.33703 33.9270128,109.454061 C33.6347234,109.591924 33.2854468,109.649521 32.8767319,109.649521 C32.4882383,109.649521 32.1567319,109.572317 31.9251064,109.454061 C31.6910298,109.317423 31.4961702,109.123802 31.3791319,108.851138 C31.3215319,108.696119 31.2633191,108.502497 31.2437106,108.250054 C31.2241021,108.015993 31.2044936,107.647132 31.2044936,107.139794 L31.2044936,103.874577 C31.2044936,103.484883 31.2241021,103.193225 31.2633191,103.000216 C31.3013106,102.804144 31.3791319,102.648512 31.5163915,102.532094 C31.5948255,102.435896 31.7100255,102.357467 31.8264511,102.319478 C31.9428766,102.27965 32.0985191,102.241049 32.2933787,102.241049 L32.2933787,102.105023 L28.9875064,102.105023 L28.9875064,102.241049 C29.1633702,102.241049 29.3177872,102.261269 29.4354383,102.319478 C29.5518638,102.357467 29.6682894,102.435896 29.7651064,102.532094 C29.8821447,102.648512 29.9605787,102.804144 30.0187915,103.000216 C30.0580085,103.193225 30.0770043,103.484883 30.0770043,103.874577 L30.0770043,108.05582 C30.0770043,108.424681 30.0580085,108.715113 30.0187915,108.90996 C29.9795745,109.0852 29.902366,109.241445 29.7847149,109.35725 C29.6100766,109.572317 29.3380085,109.68751 28.9875064,109.68751 L28.9875064,109.803315 L35.1905362,109.803315 Z M21.2096681,106.013604 C21.2096681,106.499495 21.2868766,106.94556 21.4437447,107.39285 C21.5981617,107.840753 21.8322383,108.250054 22.1043064,108.599308 C22.4738043,109.046598 22.9015149,109.397077 23.406434,109.629913 C23.9125787,109.881744 24.4377191,110 25.0014638,110 C25.5658213,110 26.0909617,109.881744 26.6161021,109.629913 C27.1210213,109.376857 27.5677277,109.006771 27.9372255,108.560706 C28.2491234,108.191232 28.4825872,107.782544 28.6382298,107.335867 C28.7932596,106.887964 28.8716936,106.421067 28.8716936,105.935175 C28.8716936,104.982998 28.5794043,104.127633 27.9574468,103.368465 C27.5879489,102.902793 27.1412426,102.551701 26.6540936,102.29987 C26.1491745,102.027207 25.624034,101.912015 25.0982809,101.912015 C24.6717957,101.912015 24.2630809,101.987993 23.8341447,102.144238 C23.4266553,102.319478 23.0369362,102.532094 22.6876596,102.843358 C22.2017362,103.233052 21.8322383,103.718944 21.5981617,104.24405 C21.3457021,104.788151 21.2096681,105.372692 21.2096681,106.013604 Z M22.4738043,106.090807 C22.4738043,105.46889 22.5510128,104.885575 22.7066553,104.340248 C22.8445277,103.797373 23.0571574,103.350083 23.3292255,102.981222 C23.5626894,102.648512 23.8151489,102.435896 24.0878298,102.29987 C24.3592851,102.144238 24.6717957,102.085416 25.0406809,102.085416 C25.4101787,102.085416 25.7404596,102.163845 26.0137532,102.29987 C26.2845957,102.435896 26.5388936,102.669957 26.7515234,102.981222 C27.0235915,103.350083 27.2374468,103.797373 27.3943149,104.340248 C27.5487319,104.885575 27.6069447,105.46889 27.6069447,106.073038 C27.6069447,107.179621 27.3348766,108.094422 26.7907404,108.851751 C26.5388936,109.202231 26.2845957,109.435066 25.9935319,109.591924 C25.7214638,109.746944 25.4101787,109.803315 25.0406809,109.803315 C24.6717957,109.803315 24.3592851,109.746944 24.0878298,109.591924 C23.8151489,109.435066 23.5430809,109.183236 23.291234,108.851751 C22.7458723,108.114029 22.4738043,107.179621 22.4738043,106.090807 Z M15.0758809,103.875189 C15.0758809,103.50449 15.0948766,103.213445 15.1340936,103.018598 C15.1720851,102.843971 15.2505191,102.688339 15.3467234,102.570695 C15.4453787,102.45489 15.5618043,102.377687 15.6770043,102.318865 C15.8136511,102.27965 15.9699064,102.240436 16.1641532,102.240436 L16.1641532,102.105023 L12.8386723,102.105023 L12.8386723,102.240436 C13.0531404,102.240436 13.208783,102.27965 13.3258213,102.318865 C13.4612426,102.377687 13.5580596,102.45489 13.6561021,102.551701 C13.7725277,102.688339 13.8497362,102.843971 13.8889532,103.018598 C13.9275574,103.194451 13.9483915,103.485495 13.9483915,103.875189 L13.9483915,108.034374 C13.9483915,108.424681 13.9275574,108.715113 13.8889532,108.910573 C13.8497362,109.085813 13.7725277,109.240832 13.6561021,109.357863 C13.5580596,109.474894 13.4612426,109.552097 13.3258213,109.591924 C13.208783,109.648908 13.0531404,109.669741 12.8386723,109.688122 L12.8386723,109.803315 L16.1641532,109.803315 L16.1641532,109.688122 C15.9699064,109.669741 15.7946553,109.648908 15.6770043,109.591924 C15.5618043,109.552097 15.4453787,109.474894 15.3467234,109.357863 C15.2505191,109.240832 15.1720851,109.085813 15.1340936,108.910573 C15.0948766,108.715113 15.0758809,108.424681 15.0758809,108.055207 L15.0758809,105.973164 L18.7702468,105.973164 L18.7702468,108.055207 C18.7702468,108.424681 18.7500255,108.715113 18.7108085,108.910573 C18.672817,109.085813 18.594383,109.240832 18.4981787,109.357863 C18.4007489,109.474894 18.2843234,109.552097 18.1666723,109.591924 C18.0312511,109.648908 17.8762213,109.669741 17.6813617,109.688122 L17.6813617,109.803315 L21.0062298,109.803315 L21.0062298,109.688122 C20.7923745,109.669741 20.6367319,109.648908 20.5203064,109.591924 C20.3848851,109.552097 20.2862298,109.474894 20.1888,109.357863 C20.0723745,109.240832 19.995166,109.085813 19.9559489,108.890353 C19.9167319,108.715113 19.8977362,108.424681 19.8977362,108.034374 L19.8977362,103.875189 C19.8977362,103.485495 19.9167319,103.213445 19.9559489,103.018598 C19.995166,102.843971 20.0723745,102.688339 20.1888,102.551701 C20.2862298,102.45489 20.3848851,102.377687 20.5203064,102.318865 C20.6367319,102.27965 20.7923745,102.240436 21.0062298,102.240436 L21.0062298,102.105023 L17.6813617,102.105023 L17.6813617,102.240436 C17.8762213,102.240436 18.0312511,102.27965 18.1666723,102.318865 C18.2843234,102.377687 18.4007489,102.45489 18.4981787,102.570695 C18.594383,102.688339 18.672817,102.843971 18.7108085,103.018598 C18.7500255,103.213445 18.7702468,103.485495 18.7702468,103.875189 L18.7702468,105.701726 L15.0758809,105.701726 L15.0758809,103.875189 Z M11.7448851,102.066422 C11.7258894,102.163845 11.6866723,102.221441 11.6670638,102.260656 C11.6088511,102.339085 11.5310298,102.377074 11.4538213,102.377074 C11.3949957,102.377074 11.3165617,102.358079 11.239966,102.319478 L10.8116426,102.163845 C10.3257191,101.987993 9.89739574,101.911402 9.46968511,101.911402 C9.02297872,101.911402 8.59526809,101.987993 8.14733617,102.144238 C7.70001702,102.319478 7.33051915,102.531481 7.01984681,102.804144 C6.61113191,103.155849 6.28085106,103.621521 6.04738723,104.204836 C5.83353191,104.769157 5.71649362,105.411294 5.71649362,106.110414 C5.71649362,107.004382 5.91074043,107.783769 6.30045957,108.424681 C6.68956596,109.066205 7.23431489,109.513495 7.93409362,109.765326 C8.38141277,109.922184 8.82811915,109.999387 9.31526809,109.999387 C9.8189617,109.999387 10.2871149,109.902577 10.6756085,109.726111 C11.0647149,109.55271 11.3753872,109.299654 11.5898553,108.969395 C11.8227064,108.618915 11.9783489,108.152631 12.0365617,107.549708 L11.9201362,107.529488 C11.8417021,108.05582 11.6866723,108.48289 11.4918128,108.794768 C11.3165617,109.066205 11.0647149,109.261665 10.7540426,109.416072 C10.4427574,109.572317 10.0732596,109.649521 9.68354043,109.649521 C8.88633191,109.649521 8.24476596,109.33703 7.7778383,108.75494 C7.50577021,108.424681 7.31213617,108.034374 7.1748766,107.568703 C7.03945532,107.082811 6.98062979,106.557704 6.98062979,105.954782 C6.98062979,105.274043 7.07805957,104.652739 7.27291915,104.107413 C7.40895319,103.718944 7.58359149,103.368465 7.79805957,103.07742 C8.03091064,102.766768 8.26498723,102.531481 8.51683404,102.377074 C8.8091234,102.182227 9.13940426,102.085416 9.54811915,102.085416 C9.79996596,102.085416 10.0340426,102.144238 10.2478979,102.221441 C10.4611404,102.319478 10.656,102.47511 10.8508596,102.669344 C11.1027064,102.921787 11.297566,103.212832 11.4342128,103.544317 C11.5114213,103.718944 11.6088511,103.972 11.7448851,104.340248 L11.8227064,104.593917 L11.9397447,104.593917 L11.8809191,102.105023 L11.7448851,102.066422 Z M0.116425532,109.785546 C0.174638298,109.591924 0.29106383,109.514108 0.446706383,109.514108 C0.506144681,109.514108 0.564357447,109.514108 0.602348936,109.53249 C0.641565957,109.55271 0.7776,109.610919 0.992068085,109.707117 C1.40078298,109.902577 1.82726809,110 2.2752,110 C2.78195745,110 3.20844255,109.881744 3.55894468,109.649521 C3.92844255,109.395852 4.20051064,109.066818 4.37514894,108.63791 C4.51057021,108.30765 4.57000851,107.977391 4.57000851,107.647132 C4.57000851,107.121413 4.43458723,106.653902 4.14107234,106.265434 C3.88922553,105.91618 3.48173617,105.604915 2.91615319,105.312032 L2.17838298,104.925402 C1.43877447,104.535708 1.0692766,104.029596 1.0692766,103.407679 C1.0692766,103.252047 1.08827234,103.07742 1.14709787,102.921787 C1.2059234,102.766155 1.2635234,102.63013 1.36156596,102.513099 C1.59380426,102.221441 1.90570213,102.085416 2.29542128,102.085416 C2.54788085,102.085416 2.79972766,102.163845 2.99458723,102.29987 C3.20844255,102.435896 3.38369362,102.648512 3.55894468,102.941395 C3.65514894,103.116022 3.73358298,103.291261 3.81079149,103.484883 C3.87022979,103.65951 3.9474383,103.953006 4.04486809,104.301647 L4.16129362,104.301647 L4.14107234,102.066422 L4.02464681,102.066422 C3.96643404,102.261269 3.88922553,102.338472 3.7728,102.338472 C3.71458723,102.338472 3.67537021,102.338472 3.5981617,102.319478 C3.5387234,102.29987 3.42291064,102.241049 3.24765957,102.163845 C3.01358298,102.066422 2.81994894,101.987993 2.68330213,101.969611 C2.54788085,101.931009 2.39162553,101.912015 2.23598298,101.912015 C1.73106383,101.912015 1.28313191,102.085416 0.914859574,102.455503 C0.699778723,102.669957 0.545361702,102.921787 0.427710638,103.213445 C0.311285106,103.503877 0.251846809,103.797373 0.251846809,104.108025 C0.251846809,104.613524 0.408102128,105.060202 0.699778723,105.411907 C0.816817021,105.526486 0.952851064,105.66435 1.12748936,105.780155 C1.30212766,105.91618 1.55581277,106.052205 1.88670638,106.247665 C2.25559149,106.441286 2.54788085,106.614688 2.72251915,106.752551 C2.91615319,106.887964 3.0528,107.023376 3.15022979,107.180234 C3.24765957,107.316872 3.32486809,107.491499 3.38369362,107.685733 C3.44251915,107.898962 3.48173617,108.094422 3.48173617,108.288656 C3.48173617,108.715113 3.3444766,109.0852 3.07302128,109.376857 C2.81994894,109.669741 2.48966809,109.803315 2.08095319,109.803315 C1.51720851,109.803315 1.03128511,109.493888 0.660561702,108.871358 C0.446706383,108.522105 0.273293617,108.05582 0.135421277,107.471279 L0.0202212766,107.452285 L0,109.785546 L0.116425532,109.785546 Z M98.5162213,89.7003824 C98.8305702,89.7003824 99.108766,89.7193769 99.312817,89.7745223 C99.5168681,89.8498876 99.7203064,89.9417965 99.9053617,90.0716944 C100.275472,90.3486467 100.682962,90.8860075 101.144987,91.6819388 C101.626621,92.5158591 102.108868,93.4594574 102.571506,94.5157973 L103.349719,96.3123104 L103.774979,97.2559086 L107.867643,97.2559086 L107.867643,96.5702681 C107.44177,96.5328918 107.1648,96.4777464 107.016511,96.3852248 C106.868221,96.3123104 106.719932,96.1817997 106.533651,95.9612183 C106.3296,95.6818151 106.05263,95.2375887 105.701515,94.5887117 C105.366945,93.9416729 104.866928,92.9417038 104.201464,91.5900299 C103.923268,90.9607601 103.700834,90.5343027 103.57154,90.2935013 C103.422638,90.0526999 103.256579,89.8498876 103.071523,89.6636188 C102.830094,89.4430374 102.534128,89.3315212 102.164017,89.3113013 C102.589889,89.2757632 102.979609,89.2010106 103.311728,89.0521181 C103.664068,88.9228329 103.960034,88.7371769 104.256,88.5159827 C105.201498,87.7574277 105.664136,86.7378514 105.664136,85.4976937 C105.664136,84.6643861 105.441089,83.9425947 105.01583,83.2943304 C104.589957,82.6650606 103.978417,82.1834579 103.183047,81.8691294 C102.515132,81.5909517 101.571472,81.4242902 100.386383,81.3679194 C100.016272,81.3679194 99.4237277,81.3501503 98.6081362,81.3501503 L92.9792681,81.3501503 L92.9792681,82.0523345 C93.5166638,82.0897108 93.9051574,82.1460816 94.1459745,82.2386032 C94.4051745,82.3127431 94.6276085,82.4800173 94.8316596,82.7024369 C95.0161021,82.8874802 95.1276255,83.1466634 95.2201532,83.4799864 C95.2942979,83.8310785 95.3310638,84.3684394 95.3310638,85.1276071 L95.3310638,93.4594574 C95.3310638,94.2186251 95.2942979,94.7749804 95.2017702,95.1260725 C95.1276255,95.460621 94.9799489,95.755955 94.7758979,95.9612183 C94.5902298,96.1444234 94.3874043,96.2933158 94.1459745,96.3852248 C93.9241532,96.4777464 93.5166638,96.5328918 92.9792681,96.5518863 L92.9792681,97.2559086 L100.589821,97.2559086 L100.589821,96.5518863 C100.035268,96.5328918 99.627166,96.4777464 99.4053447,96.3852248 C99.1633021,96.2933158 98.9427064,96.1444234 98.7564255,95.9612183 C98.571983,95.755955 98.4230809,95.4790028 98.3489362,95.1260725 C98.2570213,94.7749804 98.2196426,94.2186251 98.2196426,93.4594574 L98.2006468,89.7003824 L98.5162213,89.7003824 Z M98.2006468,82.1650761 L98.4230809,82.1650761 C99.2196766,82.1650761 99.8122213,82.2024524 100.237481,82.3127431 C100.645583,82.4052648 100.978928,82.5363882 101.200749,82.7024369 C101.626621,83.0725235 101.959966,83.51675 102.183013,84.0161218 C102.403609,84.4983373 102.497362,85.0344727 102.497362,85.5914408 C102.497362,86.6459425 102.200783,87.4982446 101.589243,88.1458961 C101.126604,88.5159827 100.700732,88.7371769 100.331234,88.8493058 C99.9605106,88.9424401 99.312817,88.9792037 98.4053106,88.9792037 L98.2006468,88.9792037 L98.2006468,82.1650761 Z M78.2765617,81.3501503 L78.2765617,82.0523345 C78.8317277,82.0897108 79.2386043,82.1460816 79.480034,82.2386032 C79.7214638,82.3127431 79.9249021,82.4610228 80.0915745,82.6460661 C80.2950128,82.867873 80.4426894,83.1466634 80.516834,83.4799864 C80.6099745,83.8310785 80.6467404,84.3874339 80.6467404,85.1276071 L80.6467404,93.4594574 C80.6467404,94.2186251 80.6099745,94.7559859 80.516834,95.1260725 C80.4426894,95.4790028 80.2950128,95.755955 80.1093447,95.9612183 C79.9052936,96.1444234 79.7024681,96.2933158 79.4622638,96.3852248 C79.220834,96.4777464 78.8317277,96.5328918 78.2765617,96.5518863 L78.2765617,97.2559086 L92.0901447,97.2559086 L92.2390468,92.3302031 L91.5527489,92.274445 C91.3879149,93.0722144 91.2384,93.6634952 91.0729532,94.0709581 C90.9056681,94.4790337 90.683234,94.8491203 90.424034,95.1634488 C90.0729191,95.6076753 89.6286638,95.9403856 89.0538894,96.1444234 C88.4987234,96.366843 87.7750468,96.4777464 86.9055319,96.4777464 C86.091166,96.4777464 85.4422468,96.366843 84.9612255,96.1260416 C84.480817,95.8864657 84.1094809,95.5157664 83.8692766,95.0151691 C83.7393702,94.7186096 83.6474553,94.3491357 83.5910809,93.9042966 C83.5347064,93.4404629 83.5175489,92.7002897 83.5175489,91.6629443 L83.5175489,89.2947577 L83.9244255,89.2947577 C84.4605957,89.2947577 84.8870809,89.349903 85.2204255,89.4430374 C85.554383,89.5527154 85.8123574,89.7193769 86.0170213,89.922802 C86.2210723,90.1458343 86.3871319,90.4233993 86.5170383,90.7567223 C86.6273362,91.0704381 86.7394723,91.5900299 86.813617,92.2928268 L87.5164596,92.2928268 L87.5722213,85.8310167 L86.868766,85.7752586 C86.7762383,86.4798937 86.7020936,86.9786528 86.5905702,87.2574432 C86.4980426,87.5343954 86.350366,87.7751968 86.1646979,87.9786219 C85.9796426,88.1826597 85.7388255,88.3125576 85.4232511,88.3854721 C85.1095149,88.4792192 84.6278809,88.5159827 83.9618043,88.5159827 L83.5175489,88.5159827 L83.5347064,82.1460816 L85.8687319,82.1460816 C86.6273362,82.1460816 87.2388766,82.1834579 87.7021277,82.2937486 C88.1469957,82.4052648 88.5538723,82.5719263 88.868834,82.8139531 C89.2757106,83.1282816 89.5722894,83.4603792 89.7757277,83.850073 C89.9797787,84.2391541 90.1458383,84.8120531 90.2579745,85.5540645 L90.9614298,85.53507 L90.756766,81.3501503 L78.2765617,81.3501503 Z M77.9242213,97.2559086 L78.0908936,92.2003051 L77.4058213,92.126778 C77.2397617,92.9600855 77.0724766,93.5715863 76.9051915,93.9980437 C76.7391319,94.4036684 76.5350809,94.7749804 76.2954894,95.0893089 C75.924766,95.570299 75.4615149,95.9226165 74.887966,96.1438107 C74.3138043,96.3662303 73.6103489,96.4777464 72.738383,96.4777464 C71.9246298,96.4777464 71.2763234,96.3662303 70.8136851,96.1260416 C70.3326638,95.8864657 69.9803234,95.5335354 69.7401191,95.0151691 C69.6102128,94.7376041 69.5170723,94.3669048 69.4606979,93.8859148 C69.4061617,93.4220811 69.3877787,92.6819079 69.3877787,91.6629443 L69.3877787,85.1276071 C69.3877787,84.3500576 69.4251574,83.7949277 69.4980766,83.4426101 C69.591217,83.0909053 69.7401191,82.8139531 69.9625532,82.6093026 C70.1469957,82.4242593 70.3522723,82.2937486 70.5740936,82.2202215 C70.8136851,82.1460816 71.2034043,82.0897108 71.7401872,82.0523345 L71.7401872,81.3501503 L64.1290213,81.3501503 L64.1290213,82.0523345 C64.648034,82.0731672 65.0371404,82.1276998 65.2773447,82.2202215 C65.4997787,82.2937486 65.7216,82.4242593 65.8882723,82.5909208 C66.1113191,82.7943459 66.2577702,83.0909053 66.3509106,83.4426101 C66.4440511,83.7949277 66.480817,84.3500576 66.480817,85.1276071 L66.480817,93.4784519 C66.480817,94.2186251 66.4440511,94.7749804 66.3692936,95.1260725 C66.276766,95.4790028 66.1480851,95.755955 65.9434213,95.9606055 C65.5739234,96.3490739 64.962383,96.5518863 64.1290213,96.5518863 L64.1290213,97.2559086 L77.9242213,97.2559086 Z M46.148017,81.3501503 L46.148017,82.0523345 C46.6848,82.0897108 47.0739064,82.1460816 47.3343319,82.2386032 C47.5739234,82.3127431 47.7969702,82.4800173 47.9997957,82.7024369 C48.1664681,82.8874802 48.2969872,83.1466634 48.3699064,83.4799864 C48.462434,83.8310785 48.4998128,84.3684394 48.4998128,85.1276071 L48.4998128,91.9974928 C48.4998128,92.8859457 48.5188085,93.4968337 48.5561872,93.8117749 C48.6854809,94.8111313 49.1848851,95.6444388 50.0550128,96.2933158 C50.9257532,97.1817688 52.4441872,97.626608 54.6293106,97.626608 C56.7029106,97.626608 58.3144851,97.143167 59.4444255,96.1444234 C59.9444426,95.7008097 60.2955574,95.2185942 60.4628426,94.6818461 C60.6289021,94.1444852 60.7214298,93.3301721 60.7214298,92.2566759 L60.7214298,85.1276071 C60.7214298,84.3684394 60.7588085,83.8126967 60.8329532,83.4799864 C60.9254809,83.1282816 61.0553872,82.867873 61.2588255,82.6460661 C61.4444936,82.4610228 61.6657021,82.3127431 61.9065191,82.2386032 C62.1473362,82.1460816 62.5364426,82.0897108 63.0738383,82.0523345 L63.0738383,81.3501503 L57.4437447,81.3501503 L57.4437447,82.0523345 C57.9811404,82.0897108 58.369634,82.1460816 58.6104511,82.2386032 C58.8506553,82.3127431 59.0559319,82.4610228 59.2403745,82.6460661 C59.4444255,82.867873 59.5921021,83.1466634 59.6662468,83.4799864 C59.739166,83.8310785 59.7955404,84.3684394 59.7955404,85.1276071 L59.7955404,91.4601319 C59.7955404,92.6089935 59.7765447,93.3301721 59.739166,93.6261189 C59.7036255,94.0893399 59.6098723,94.4594265 59.4811915,94.7559859 C59.3506723,95.0341636 59.1662298,95.2933468 58.9070298,95.5335354 C58.4443915,95.9403856 57.888,96.2559396 57.2029277,96.4777464 C56.5362383,96.7191605 55.8144,96.8306767 55.0741787,96.8306767 C54.3149617,96.8306767 53.6850383,96.7007787 53.1850213,96.4599774 C52.7033872,96.2007942 52.2965106,95.7921059 51.9441702,95.2375887 C51.7217362,94.8668894 51.5746723,94.4594265 51.5005277,94.0145873 C51.4257702,93.5715863 51.3883915,92.8295749 51.3883915,91.7940677 L51.3883915,85.3867902 C51.3883915,84.4793428 51.4257702,83.850073 51.5005277,83.4977555 C51.5746723,83.1656579 51.7217362,82.867873 51.9441702,82.6460661 C52.1108426,82.4610228 52.3148936,82.3127431 52.5557106,82.2386032 C52.7953021,82.1460816 53.2034043,82.0897108 53.7401872,82.0523345 L53.7401872,81.3501503 L46.148017,81.3501503 Z M32.6855489,85.1269943 C32.6855489,84.3684394 32.7229277,83.8126967 32.7970723,83.4799864 C32.8718298,83.1276689 33.0188936,82.867873 33.2229447,82.6460661 C33.4086128,82.4610228 33.6114383,82.3127431 33.8528681,82.2379905 C34.0936851,82.1460816 34.4821787,82.0897108 35.0373447,82.0523345 L35.0373447,81.3495376 L27.4267915,81.3495376 L27.4267915,82.0523345 C27.9641872,82.0897108 28.3710638,82.1460816 28.6124936,82.2379905 C28.8526979,82.3127431 29.0757447,82.4794046 29.2785702,82.7024369 C29.4642383,82.8874802 29.5935319,83.1460507 29.6682894,83.4799864 C29.7418213,83.8310785 29.7785872,84.3684394 29.7785872,85.1269943 L29.7785872,93.4594574 C29.7785872,94.2186251 29.7418213,94.7743677 29.6682894,95.1260725 C29.5935319,95.460621 29.4452426,95.755955 29.2234213,95.9606055 C29.0567489,96.1438107 28.8337021,96.2933158 28.6124936,96.3852248 C28.3710638,96.4771337 27.9825702,96.5328918 27.4267915,96.5518863 L27.4267915,97.2559086 L35.0373447,97.2559086 L35.0373447,96.5518863 C34.4821787,96.5328918 34.0746894,96.4771337 33.8528681,96.3852248 C33.6114383,96.2933158 33.4086128,96.1438107 33.2229447,95.9606055 C33.0188936,95.755955 32.8718298,95.4790028 32.7970723,95.1260725 C32.7229277,94.7743677 32.6855489,94.2186251 32.6855489,93.4594574 L32.6855489,89.5337209 L40.1668085,89.5337209 L40.1668085,93.4594574 C40.1668085,94.2186251 40.1294298,94.7743677 40.0375149,95.1260725 C39.963983,95.4790028 39.8524596,95.7185787 39.723166,95.8668584 C39.4627404,96.1260416 39.2231489,96.2933158 38.9817191,96.3852248 C38.7409021,96.4771337 38.3524085,96.5328918 37.7972426,96.5518863 L37.7972426,97.2559086 L45.4077957,97.2559086 L45.4077957,96.5518863 C44.8704,96.5328918 44.4819064,96.4771337 44.2417021,96.3852248 C43.9996596,96.2933158 43.7778383,96.1260416 43.556017,95.9042347 C43.3893447,95.7185787 43.2600511,95.460621 43.1852936,95.1260725 C43.1111489,94.7743677 43.056,94.2186251 43.056,93.4594574 L43.056,85.1269943 C43.056,84.3684394 43.092766,83.8310785 43.1852936,83.4799864 C43.2600511,83.1276689 43.4071149,82.867873 43.5933957,82.6460661 C43.7778383,82.4610228 43.9996596,82.3127431 44.2417021,82.2379905 C44.4819064,82.1460816 44.8704,82.0897108 45.4077957,82.0523345 L45.4077957,81.3495376 L37.7972426,81.3495376 L37.7972426,82.0523345 C38.3524085,82.0897108 38.7409021,82.1460816 38.9817191,82.2379905 C39.2231489,82.3127431 39.4449702,82.4610228 39.6306383,82.6460661 C39.8156936,82.867873 39.963983,83.1276689 40.0375149,83.4799864 C40.1294298,83.8310785 40.1668085,84.3684394 40.1668085,85.1269943 L40.1668085,88.5343645 L32.6855489,88.5343645 L32.6855489,85.1269943 Z M25.2416681,81.2392469 C25.1301447,81.49843 25.0388426,81.6834733 24.9830809,81.7576132 C24.9273191,81.8317531 24.8531745,81.8691294 24.7410383,81.8691294 C24.6307404,81.8691294 24.5014468,81.8501349 24.3531574,81.7949895 L23.5204085,81.5161991 C22.4266213,81.147338 21.408817,80.9610692 20.5019234,80.9610692 C19.5208851,80.9610692 18.557617,81.1283434 17.5765787,81.4616665 C16.6139234,81.7753823 15.7793362,82.2208342 15.0764936,82.7765768 C14.1683745,83.51675 13.4649191,84.4793428 12.9471319,85.682737 C12.4465021,86.8689748 12.2050723,88.1636652 12.2050723,89.5717099 C12.2050723,91.4227556 12.6309447,93.0336127 13.5016851,94.3675175 C14.3712,95.7185787 15.5942809,96.6444079 17.1310979,97.1639997 C18.0937532,97.4777155 19.1121702,97.626608 20.1685787,97.626608 C21.2979064,97.626608 22.3163234,97.4409519 23.1870638,97.0892471 C24.0578043,96.7191605 24.7410383,96.1817997 25.2416681,95.460621 C25.7784511,94.7186096 26.1124085,93.6812642 26.2606979,92.312434 L25.5756255,92.2003051 C25.3531915,93.3669357 25.0388426,94.2553886 24.6307404,94.8491203 C24.2784,95.3674866 23.778383,95.7743368 23.1319149,96.0519017 C22.5013787,96.3300794 21.7611574,96.4777464 20.9467915,96.4777464 C19.316834,96.4777464 18.0024511,95.9048475 17.0201872,94.7559859 C16.4827915,94.1444852 16.0575319,93.3669357 15.7793362,92.4417192 C15.5017532,91.51589 15.3534638,90.4601628 15.3534638,89.2947577 C15.3534638,87.9234765 15.5575149,86.7200824 15.9827745,85.6459734 C16.2603574,84.886193 16.6506894,84.2201596 17.0937191,83.6276534 C17.557583,83.0351472 18.039217,82.5909208 18.557617,82.2937486 C19.1489362,81.9426565 19.835234,81.7576132 20.6496,81.7576132 C21.1686128,81.7576132 21.649634,81.8501349 22.0755064,82.0167964 C22.4829957,82.1834579 22.8898723,82.4616356 23.2973617,82.8501039 C23.8157617,83.3507012 24.2244766,83.9058311 24.5014468,84.5173318 C24.6681191,84.8506549 24.8721702,85.3690212 25.1301447,86.0901999 L25.3899574,86.7752277 L26.0388766,86.7752277 L25.8899745,81.312774 L25.2416681,81.2392469 Z M0.816817021,97.2007633 C0.946110638,96.8496712 1.13177872,96.6634024 1.39097872,96.6634024 C1.48350638,96.6634024 1.55765106,96.6811715 1.63179574,96.7007787 C1.70655319,96.7191605 1.9835234,96.8496712 2.42839149,97.033489 C3.35428085,97.4409519 4.31693617,97.626608 5.29797447,97.626608 C6.40953191,97.626608 7.35441702,97.3845811 8.18716596,96.8864348 C9.00153191,96.3852248 9.61307234,95.6634334 10.0211745,94.7559859 C10.2981447,94.0893399 10.446434,93.386543 10.446434,92.6635261 C10.446434,91.5900299 10.1320851,90.6274371 9.48377872,89.7935168 C8.92738723,89.0717254 8.02049362,88.4050793 6.76125957,87.8125731 L5.16868085,87.0337982 C3.65024681,86.3126195 2.89102979,85.3494139 2.89102979,84.165627 C2.89102979,83.8874493 2.94679149,83.5908899 3.05770213,83.2943304 C3.168,83.0167655 3.31690213,82.7575823 3.48357447,82.5363882 C3.92844255,82.0167964 4.53937021,81.7576132 5.29797447,81.7576132 C5.83537021,81.7576132 6.29862128,81.8875112 6.70611064,82.1460816 C7.11237447,82.4242593 7.50148085,82.8311094 7.85504681,83.3874648 C8.0388766,83.7017933 8.22454468,84.0541108 8.3538383,84.4052029 C8.50151489,84.7759023 8.68718298,85.3684085 8.90961702,86.201716 L9.59530213,86.201716 L9.50154894,81.2576287 L8.83485957,81.2576287 C8.74355745,81.646097 8.63203404,81.8317531 8.50151489,81.8317531 C8.40898723,81.8317531 8.31768511,81.813984 8.18716596,81.7753823 C8.07564255,81.7398441 7.85504681,81.6644788 7.53824681,81.5358063 C6.98308085,81.312774 6.53821277,81.147338 6.22386383,81.0719726 C5.91012766,80.9984455 5.55717447,80.9610692 5.18645106,80.9610692 C4.03996596,80.9610692 3.03993191,81.3501503 2.20534468,82.1276998 C1.72554894,82.5541572 1.3536,83.0915181 1.09501277,83.6827988 C0.835812766,84.2942995 0.705906383,84.9235693 0.705906383,85.5914408 C0.705906383,86.664937 1.03925106,87.5907662 1.72554894,88.3309394 C1.96575319,88.6091171 2.27948936,88.8683003 2.68759149,89.1268707 C3.07608511,89.3854411 3.63125106,89.7003824 4.35431489,90.0716944 C5.14968511,90.4779319 5.74345532,90.8112549 6.11295319,91.0704381 C6.48428936,91.3308467 6.78025532,91.6090244 6.98308085,91.8669821 C7.16874894,92.1451598 7.33603404,92.4594883 7.44633191,92.8491821 C7.55724255,93.218656 7.632,93.5905808 7.632,93.9416729 C7.632,94.7749804 7.37157447,95.460621 6.85501277,95.9955309 C6.33538723,96.5328918 5.66869787,96.8122949 4.87271489,96.8122949 C3.72377872,96.8122949 2.76173617,96.2007942 2.00251915,95.0151691 C1.57664681,94.3491357 1.2059234,93.386543 0.853582979,92.1273907 L0.188119149,92.0520254 L0.169123404,97.2007633 L0.816817021,97.2007633 Z M74.2016681,35.085649 C74.2102468,35.078909 74.2200511,35.0727818 74.2292426,35.0654291 C74.1171064,34.8399458 73.9369532,34.5832136 73.659983,34.2921687 C72.670366,33.2327651 71.8314894,33.8142423 71.1703149,34.6953425 C71.8707064,34.8264659 71.8363915,36.235736 72.471217,36.1487289 C72.7684085,36.1089017 73.4933106,35.5997263 74.2016681,35.085649 Z M77.6509277,43.225716 C78.3507064,43.3470358 78.3170043,44.7544678 78.9524426,44.6680734 C79.2539234,44.6276335 79.9978213,44.1025272 80.7165957,43.5810972 C80.6062979,43.3568394 80.4298213,43.1019454 80.1589787,42.8139641 C79.1589447,41.7527224 78.315166,42.3421649 77.6509277,43.225716 Z M65.7093447,43.1785361 C65.742434,43.180987 65.7669447,43.1570907 65.7669447,43.0749854 C65.7669447,43.0749854 69.0734298,38.5444882 67.716766,39.8808439 C66.3797106,41.2184251 63.0750638,43.6135717 62.5358298,44.4113412 C61.9978213,45.2103361 55.2384,50.2794196 58.2084766,48.9418384 C61.181617,47.6054826 62.5358298,47.3456867 62.5358298,47.3456867 L63.9476426,46.009331 C63.9476426,46.009331 67.9955745,46.2875087 66.6401362,44.4113412 C66.1676936,43.7569496 65.8790809,43.3825739 65.7093447,43.1785361 Z M38.1906383,44.6343735 C35.2622298,43.3795103 32.8804085,44.4113412 32.8804085,44.4113412 L38.1906383,44.6343735 Z M27.9709277,36.8000568 C28.5781787,36.9072839 28.4709447,38.1088399 29.0929021,38.023671 C29.394383,37.976491 30.1603404,37.4832465 30.9060766,37.0040946 C30.7963915,36.8233404 30.6505532,36.6266553 30.4483404,36.4091375 C29.4624,35.369954 28.6290383,35.933662 27.9709277,36.8000568 Z M36.5919319,31.4993628 C37.2941617,31.6231335 37.259234,33.0232128 37.8940596,32.9368184 C38.1955404,32.8963785 38.9357617,32.3743358 39.6514723,31.8541313 C39.5399489,31.6280353 39.3597957,31.3706903 39.0834383,31.0796454 C38.0925957,30.017791 37.2537191,30.6109099 36.5919319,31.4993628 Z M100.956868,49.202247 C100.678672,50.0183982 99.600817,52.4141575 98.7846128,51.3375976 C97.9849532,50.2794196 97.1687489,52.4141575 96.6295149,52.4141575 C96.0908936,52.4141575 95.0148766,54.5513463 93.380017,52.4141575 C91.7653787,50.2794196 92.8420085,51.616388 91.2273702,51.3375976 C89.6115064,51.0778018 89.0728851,52.4141575 87.9766468,51.3375976 C87.9239489,51.2855159 87.905566,51.2659087 87.8681872,51.2285324 C88.0900085,51.5128373 88.3008,51.9576765 86.900017,51.3375976 C84.7161191,50.3878721 82.993634,51.3584303 82.6615149,51.3676212 C82.836766,51.6225153 83.1020936,52.6567971 80.4187915,51.3375976 C77.1876766,49.7402206 74.4761872,50.5398282 72.8603234,50.2794196 C71.2462979,50.0183982 67.457566,50.5398282 68.5341957,51.3375976 C69.6114383,52.1359798 65.8423149,51.3375976 65.3030809,50.2794196 C64.8165447,49.3388849 63.1118298,50.7720514 62.9715064,51.2456887 C62.9255489,51.348014 61.5155745,50.8180059 60.977566,52.4141575 C60.4383319,54.0121473 59.6221277,54.8099168 59.8997106,56.666477 C60.1601362,58.5426445 60.4383319,67.8634349 63.1302128,69.4779683 C65.8423149,71.0765708 69.0734298,72.9337438 69.6114383,72.6733352 C70.1500596,72.3951575 70.4288681,72.9337438 73.9381787,73.7315133 C77.4481021,74.5298954 76.9094809,74.0103037 79.3421617,74.8080731 C81.7748426,75.607068 81.2356085,76.9997946 75.5540426,76.6640207 C35.518366,74.381003 30.1885277,77.5751445 30.1511489,77.5377682 C30.1511489,77.5377682 30.3000511,77.4268647 30.4483404,77.2038324 C31.5261957,75.607068 34.7750809,74.5298954 34.7750809,74.5298954 C37.7457702,72.3951575 42.0547404,73.2113088 44.7662298,70.5373718 C47.4568851,67.8634349 47.7375319,62.0143509 48.0151149,59.8790003 C48.2743149,57.7442624 49.6309787,56.1468853 48.0151149,54.5513463 C46.3802553,52.9355875 48.5537362,52.9355875 45.8422468,52.4141575 C43.1491404,51.8761839 42.3329362,52.1359798 40.4388766,52.4141575 C38.544817,52.6745661 37.2077617,53.473561 36.1121362,52.4141575 C35.0342809,51.3375976 35.0342809,52.4141575 32.8804085,51.3375976 C30.7265362,50.2794196 33.6978383,49.202247 29.6309106,50.2794196 C25.5829787,51.3375976 25.323166,52.4141575 23.1502979,51.3375976 C20.9964255,50.2794196 22.6116766,48.4038648 19.9197957,49.202247 C17.2076936,50.0183982 18.8229447,48.9418384 15.5924426,49.202247 C12.3435574,49.4804247 12.6211404,50.2794196 11.2657021,50.2794196 C9.91026383,50.2794196 8.57259574,49.4804247 6.67853617,49.202247 C4.78508936,48.9418384 5.60129362,48.9418384 3.96765957,46.5473045 C2.35179574,44.152158 5.86233191,43.8733676 4.24585532,43.3531631 C3.52279149,43.1123617 3.28074894,43.1865016 3.26236596,43.1675071 C3.24337021,43.1301308 3.55955745,42.926093 3.70723404,41.7380169 C3.96765957,39.6210481 6.67853617,40.9396347 6.9389617,39.6210481 C7.21654468,38.2846923 5.86233191,39.0830745 5.86233191,37.4850847 C5.86233191,35.888933 4.78508936,35.3503467 4.78508936,34.2921687 C4.78508936,33.2149961 5.60129362,34.5519646 6.9389617,33.2149961 C8.2944,31.8774149 6.9389617,31.8774149 6.9389617,30.0208546 C6.9389617,28.1459126 6.14052766,27.6257081 8.03397447,25.7501533 C9.77177872,24.0308437 12.4440511,20.9298366 12.4011574,20.4813211 C12.8172255,20.5107319 14.1138383,20.1915016 14.5152,17.2277452 C15.054434,13.2168397 18.0257362,16.1511853 19.9197957,12.9570438 C21.7942468,9.76290238 23.4278809,11.898253 24.2275404,10.8210805 C25.0443574,9.76290238 26.9378043,10.0226983 28.5548936,8.68634252 C30.1689191,7.36775583 30.9863489,7.62816445 31.8037787,6.55037914 C32.6028255,5.49220106 33.6978383,4.95300204 36.1121362,4.43402299 C38.544817,3.89482397 40.9774979,4.69443161 41.5155064,3.3568504 C42.0547404,2.02049465 43.6883745,3.09644179 45.8422468,2.29928505 C48.0151149,1.50029014 48.8129362,0.163321668 50.1683745,1.22088702 C51.5238128,2.29928505 51.7842383,2.29928505 53.4001021,1.22088702 C55.0337362,0.163321668 56.9284085,-0.63444779 58.0050383,0.701907961 C59.0822809,2.02049465 61.236766,0.422504833 63.1302128,1.22088702 C65.0242723,2.02049465 66.1015149,1.22088702 67.457566,3.3568504 C68.8130043,5.49220106 69.8908596,6.29058325 71.7830809,5.49220106 C73.659983,4.69443161 74.2163745,5.23240517 76.0920511,6.55037914 C77.9861106,7.88734761 76.3714723,8.42654663 78.2655319,8.68634252 C80.1589787,8.9645202 80.1589787,7.09019088 80.4187915,9.76290238 C80.6982128,12.4178448 79.8795574,12.697248 82.5922723,11.898253 C85.284766,11.0992581 85.5623489,11.898253 85.8227745,12.9570438 C86.1009702,14.0164474 86.0825872,15.6119863 87.7174468,16.1511853 C90.1495149,16.9489548 90.6875234,17.2277452 89.0728851,18.8251223 C87.4380255,20.4212739 88.5336511,19.6228917 89.8713191,22.018651 C91.2273702,24.4125721 88.7940766,24.9523838 92.3046128,25.7501533 C95.8126979,26.5491482 95.0148766,28.4240902 94.4768681,28.9442948 C93.9382468,29.4834938 94.7360681,33.7541951 96.6295149,33.2149961 C98.5241872,32.6764098 100.956868,34.2921687 98.7846128,35.3503467 C96.6295149,36.4091375 96.0908936,38.023671 97.7067574,37.4850847 C99.3226213,36.9471111 99.600817,39.8808439 98.7846128,40.6792261 C97.9849532,41.4788338 97.7067574,43.6135717 99.8802383,42.8151895 C102.034111,42.0168073 100.678672,46.009331 99.8802383,46.009331 C99.0628085,46.009331 101.217906,48.4038648 100.956868,49.202247 Z M12.4011574,20.4813211 C12.3172085,20.4751938 12.2657362,20.4561993 12.2688,20.4402684 C12.2688,20.4212739 12.287183,20.4212739 12.3435574,20.4212739 C12.3827745,20.4212739 12.3980936,20.4457829 12.4011574,20.4813211 Z" id="Fill-1" fill="#0F4C90" mask="url(#mask-2)"></path>
            </g>
        </g>
    </g>
</svg>